<svg width="800" height="800" viewBox="0 0 24 24" fill="none" xmlns="http://www.w3.org/2000/svg">
  <path
    d="M120.453 168.58c-7.886 2.466-13.388 6.786-16.813 13.199-2.467 4.62-2.967 7.686-2.97 18.221-.003 11.04.425 13.431 3.33 18.615 3.674 6.556 9.784 11.31 17.176 13.364 6.656 1.848 550.992 1.848 557.648 0 7.392-2.054 13.502-6.808 17.176-13.364 2.914-5.201 3.329-7.54 3.297-18.615-.041-14.419-2.696-21.492-10.03-26.714-9.741-6.936 4.02-6.626-289.812-6.53-220.565.072-274.528.425-279.002 1.824m0 200c-7.886 2.466-13.388 6.786-16.813 13.199-2.467 4.62-2.967 7.686-2.97 18.221-.003 11.04.425 13.431 3.33 18.615 3.674 6.556 9.784 11.31 17.176 13.364 6.656 1.848 550.992 1.848 557.648 0 7.392-2.054 13.502-6.808 17.176-13.364 2.914-5.201 3.329-7.54 3.297-18.615-.041-14.419-2.696-21.492-10.03-26.714-9.741-6.936 4.02-6.626-289.812-6.53-220.565.072-274.528.425-279.002 1.824m0 200c-7.886 2.466-13.388 6.786-16.813 13.199-2.467 4.62-2.967 7.686-2.97 18.221-.003 11.04.425 13.431 3.33 18.615 3.674 6.556 9.784 11.31 17.176 13.364 6.656 1.848 550.992 1.848 557.648 0 7.392-2.054 13.502-6.808 17.176-13.364 2.914-5.201 3.329-7.54 3.297-18.615-.041-14.419-2.696-21.492-10.03-26.714-9.741-6.936 4.02-6.626-289.812-6.53-220.565.072-274.528.425-279.002 1.824"
    fill-rule="evenodd" fill="currentColor" />
</svg>