<svg xmlns="http://www.w3.org/2000/svg" xmlns:xlink="http://www.w3.org/1999/xlink" version="1.1"
  id="Ebene_1" x="0px" y="0px" viewBox="0 0 593.5 593.5"
  style="enable-background:new 0 0 593.5 593.5;" xml:space="preserve">
<style type="text/css">
	.st0{fill:#FFA100;}
	.st1{fill:#0DB1CC;}
	.st2{fill:#F60150;}
</style>
<g>
	<path class="st0" d="M69.6,277h49.1v39.6l0,39.6v71.5c-12.7,9.2-17.8,26.3-11.1,41.2c7.6,17.1,27.6,24.7,44.7,17.1   c17.1-7.6,24.8-27.6,17.2-44.7c-1-2.2-2.1-4.2-3.5-6c-2.2-3-4.8-5.5-7.7-7.6v-71.5v-39.6V277h49.1c38.4,0,69.6-31.2,69.6-69.6   v-35.9h-39.6v35.9c0,16.6-13.5,30.1-30.1,30.1h-49.1l-39.6,0H69.6c-16.6,0-30.1-13.5-30.1-30.1V69.6c0-16.6,13.5-30.1,30.1-30.1   h137.7c16.6,0,30.1,13.5,30.1,30.1v35.9l39.6,0V69.6C277,31.2,245.7,0,207.3,0L69.6,0C31.2,0,0,31.2,0,69.6v137.7   C0,245.7,31.2,276.9,69.6,277z"/>
	<path class="st1" d="M237.4,118.7h-71.5c-9.2-12.7-26.3-17.8-41.2-11.1c-17.1,7.6-24.8,27.6-17.1,44.7c2.5,5.7,6.4,10.3,11.1,13.6   c9.5,6.8,22.1,8.6,33.5,3.5c5.7-2.5,10.3-6.4,13.7-11.1h71.5h39.6h39.6l0,49.1c0,38.4,31.2,69.6,69.6,69.6H422v-39.6l-35.9,0   c-16.6,0-30.1-13.5-30.1-30.1v-49.1v-39.6V69.6c0-16.6,13.5-30.1,30.1-30.1h137.7c16.6,0,30.1,13.5,30.1,30.1v137.7   c0,16.6-13.5,30.1-30.1,30.1h-35.9l0,39.6l35.9,0c38.4,0,69.6-31.2,69.6-69.6V69.6c0-38.4-31.2-69.6-69.6-69.6H386.1   c-38.4,0-69.6,31.2-69.6,69.6l0,49.1H277H237.4z"/>
	<path class="st2" d="M593.4,386.1c0-38.4-31.2-69.6-69.6-69.6h-49.1V277v-31.7l0-7.9l0-71.5c12.7-9.2,17.8-26.3,11.1-41.2   c-7.6-17.1-27.6-24.7-44.7-17.2c-17.1,7.6-24.8,27.6-17.1,44.7c1,2.2,2.1,4.2,3.5,6c2.2,3,4.8,5.5,7.7,7.6v71.5v39.6v39.6h-49.1   c-38.4,0-69.6,31.2-69.6,69.6V422l39.6,0v-35.9c0-16.6,13.5-30.1,30.1-30.1h49.1h16.5h23.1h49.1c16.6,0,30.1,13.5,30.1,30.1v137.7   c0,16.6-13.5,30.1-30.1,30.1H386.1c-16.6,0-30.1-13.5-30.1-30.1V488l-39.6,0l0,35.9c0,38.4,31.2,69.6,69.6,69.6h137.7   c38.4,0,69.6-31.2,69.6-69.6L593.4,386.1z"/>
	<path class="st1" d="M356.1,474.8h71.5c9.2,12.7,26.3,17.8,41.2,11.1c17.1-7.6,24.8-27.6,17.1-44.7c-7.6-17.1-27.6-24.7-44.7-17.1   c-1.5,0.7-2.8,1.4-4.2,2.3c-3.8,2.4-7,5.4-9.5,8.9h-71.5h-39.6H277v-49.1c0-38.4-31.2-69.6-69.6-69.6h-35.9v39.6h35.9   c16.6,0,30.1,13.5,30.1,30.1l0,49.1l0,39.6v49.1c0,16.6-13.5,30.1-30.1,30.1l-137.7,0c-16.6,0-30.1-13.5-30.1-30.1l0-137.7   c0-16.6,13.5-30.1,30.1-30.1h35.9l0-39.6l-35.9,0C31.2,316.5,0,347.7,0,386.1l0,137.7c0,38.4,31.2,69.6,69.6,69.6l137.7,0   c38.4,0,69.6-31.2,69.6-69.6v-49.1h39.6H356.1z"/>
</g>
</svg>