<svg xmlns="http://www.w3.org/2000/svg" xmlns:xlink="http://www.w3.org/1999/xlink" version="1.1"
	x="0px" y="0px" width="1000px" height="200px" viewBox="0 0 1000 200"
	style="enable-background:new 0 0 1000 200;" xml:space="preserve">
<style type="text/css">
	.st0{display:none;}
	.st1{display:inline;fill:#E85316;}
	.st2{fill:#FFFFFF;}
	.st3{fill:#12B0CC;}
</style>
<g id="Ebene_2" class="st0">
	<path class="st1" d="M65.5,166.1c-8.1,0-14.9-0.8-20.5-2.3c-5.5-1.5-10-3.8-13.4-6.9c-3.4-3-5.9-6.8-7.4-11.3   c-1.6-4.5-2.3-9.6-2.3-15.5V69.8c0-5.8,0.8-11,2.3-15.5c1.5-4.5,4-8.2,7.4-11.3c3.4-3,7.9-5.3,13.4-6.9c5.5-1.5,12.4-2.3,20.5-2.3   h75.7c8,0,14.8,0.8,20.4,2.3c5.6,1.6,10.1,3.8,13.5,6.9c3.4,3,5.9,6.8,7.4,11.3c1.5,4.5,2.3,9.6,2.3,15.5v60.3   c0,5.8-0.8,11-2.3,15.5c-1.6,4.5-4,8.2-7.4,11.3c-3.4,3-7.9,5.3-13.5,6.9c-5.6,1.6-12.4,2.3-20.4,2.3H65.5z M48.5,129.1   c0,3.7,1.3,6.5,4,8.3c2.7,1.9,6.9,2.8,12.8,2.8h76.1c5.8,0,10.1-0.9,12.8-2.8c2.7-1.8,4-4.6,4-8.3V70.9c0-3.7-1.3-6.5-4-8.3   c-2.7-1.8-7-2.8-12.8-2.8H65.3c-5.8,0-10.1,0.9-12.8,2.8c-2.7,1.9-4,4.6-4,8.3V129.1z"/>
	<path class="st1" d="M250.9,166.1c-8.1,0-14.9-0.8-20.5-2.3c-5.5-1.5-10-3.8-13.4-6.9c-3.4-3-5.9-6.8-7.4-11.3   c-1.6-4.5-2.3-9.6-2.3-15.5V69.8c0-5.8,0.8-11,2.3-15.5c1.5-4.5,4-8.2,7.4-11.3c3.4-3,7.9-5.3,13.4-6.9c5.5-1.5,12.4-2.3,20.5-2.3   h75.7c8,0,14.8,0.8,20.4,2.3c5.6,1.6,10.1,3.8,13.5,6.9c3.4,3,5.9,6.8,7.4,11.3c1.5,4.5,2.3,9.6,2.3,15.5v60.3   c0,5.8-0.8,11-2.3,15.5c-1.6,4.5-4,8.2-7.4,11.3c-3.4,3-7.9,5.3-13.5,6.9c-5.6,1.6-12.4,2.3-20.4,2.3H250.9z M233.9,129.1   c0,3.7,1.3,6.5,4,8.3c2.7,1.9,6.9,2.8,12.8,2.8h76.1c5.8,0,10.1-0.9,12.8-2.8c2.7-1.8,4-4.6,4-8.3V70.9c0-3.7-1.3-6.5-4-8.3   c-2.7-1.8-7-2.8-12.8-2.8h-76.1c-5.8,0-10.1,0.9-12.8,2.8c-2.7,1.9-4,4.6-4,8.3V129.1z"/>
	<path class="st1" d="M436.4,166.1c-8.1,0-14.9-0.8-20.5-2.3c-5.5-1.5-10-3.8-13.4-6.9c-3.4-3-5.9-6.8-7.4-11.3   c-1.6-4.5-2.3-9.6-2.3-15.5V69.8c0-5.8,0.8-11,2.3-15.5c1.5-4.5,4-8.2,7.4-11.3c3.4-3,7.9-5.3,13.4-6.9c5.5-1.5,12.4-2.3,20.5-2.3   h75.7c8,0,14.8,0.8,20.4,2.3c5.6,1.6,10.1,3.8,13.5,6.9c3.4,3,5.9,6.8,7.4,11.3c1.5,4.5,2.3,9.6,2.3,15.5v60.3   c0,5.8-0.8,11-2.3,15.5c-1.6,4.5-4,8.2-7.4,11.3c-3.4,3-7.9,5.3-13.5,6.9c-5.6,1.6-12.4,2.3-20.4,2.3H436.4z M419.4,129.1   c0,3.7,1.3,6.5,4,8.3c2.7,1.9,6.9,2.8,12.8,2.8h76.1c5.8,0,10.1-0.9,12.8-2.8c2.7-1.8,4-4.6,4-8.3V70.9c0-3.7-1.3-6.5-4-8.3   c-2.7-1.8-7-2.8-12.8-2.8h-76.1c-5.8,0-10.1,0.9-12.8,2.8c-2.7,1.9-4,4.6-4,8.3V129.1z"/>
	<path class="st1" d="M621.9,166.1c-8.1,0-14.9-0.8-20.5-2.3c-5.5-1.5-10-3.8-13.4-6.9c-3.4-3-5.9-6.8-7.4-11.3   c-1.6-4.5-2.3-9.6-2.3-15.5V69.8c0-5.8,0.8-11,2.3-15.5c1.5-4.5,4-8.2,7.4-11.3c3.4-3,7.9-5.3,13.4-6.9c5.5-1.5,12.4-2.3,20.5-2.3   h75.7c8,0,14.8,0.8,20.4,2.3c5.6,1.6,10.1,3.8,13.5,6.9c3.4,3,5.9,6.8,7.4,11.3c1.5,4.5,2.3,9.6,2.3,15.5v60.3   c0,5.8-0.8,11-2.3,15.5c-1.6,4.5-4,8.2-7.4,11.3c-3.4,3-7.9,5.3-13.5,6.9c-5.6,1.6-12.4,2.3-20.4,2.3H621.9z M604.9,129.1   c0,3.7,1.3,6.5,4,8.3c2.7,1.9,6.9,2.8,12.8,2.8h76.1c5.8,0,10.1-0.9,12.8-2.8c2.7-1.8,4-4.6,4-8.3V70.9c0-3.7-1.3-6.5-4-8.3   c-2.7-1.8-7-2.8-12.8-2.8h-76.1c-5.8,0-10.1,0.9-12.8,2.8c-2.7,1.9-4,4.6-4,8.3V129.1z"/>
	<path class="st1" d="M807.4,166.1c-8.1,0-14.9-0.8-20.5-2.3c-5.5-1.5-10-3.8-13.4-6.9c-3.4-3-5.9-6.8-7.4-11.3   c-1.6-4.5-2.3-9.6-2.3-15.5V69.8c0-5.8,0.8-11,2.3-15.5c1.5-4.5,4-8.2,7.4-11.3c3.4-3,7.9-5.3,13.4-6.9c5.5-1.5,12.4-2.3,20.5-2.3   h75.7c8,0,14.8,0.8,20.4,2.3c5.6,1.6,10.1,3.8,13.5,6.9c3.4,3,5.9,6.8,7.4,11.3c1.5,4.5,2.3,9.6,2.3,15.5v60.3   c0,5.8-0.8,11-2.3,15.5c-1.6,4.5-4,8.2-7.4,11.3c-3.4,3-7.9,5.3-13.5,6.9c-5.6,1.6-12.4,2.3-20.4,2.3H807.4z M790.4,129.1   c0,3.7,1.3,6.5,4,8.3c2.7,1.9,6.9,2.8,12.8,2.8h76.1c5.8,0,10.1-0.9,12.8-2.8c2.7-1.8,4-4.6,4-8.3V70.9c0-3.7-1.3-6.5-4-8.3   c-2.7-1.8-7-2.8-12.8-2.8h-76.1c-5.8,0-10.1,0.9-12.8,2.8c-2.7,1.9-4,4.6-4,8.3V129.1z"/>
	<path class="st1" d="M992.9,166.1c-8.1,0-14.9-0.8-20.5-2.3c-5.5-1.5-10-3.8-13.4-6.9c-3.4-3-5.9-6.8-7.4-11.3   c-1.6-4.5-2.3-9.6-2.3-15.5V69.8c0-5.8,0.8-11,2.3-15.5c1.5-4.5,4-8.2,7.4-11.3c3.4-3,7.9-5.3,13.4-6.9c5.5-1.5,12.4-2.3,20.5-2.3   h75.7c8,0,14.8,0.8,20.4,2.3c5.6,1.6,10.1,3.8,13.5,6.9c3.4,3,5.9,6.8,7.4,11.3c1.5,4.5,2.3,9.6,2.3,15.5v60.3   c0,5.8-0.8,11-2.3,15.5c-1.6,4.5-4,8.2-7.4,11.3c-3.4,3-7.9,5.3-13.5,6.9c-5.6,1.6-12.4,2.3-20.4,2.3H992.9z M975.9,129.1   c0,3.7,1.3,6.5,4,8.3c2.7,1.9,6.9,2.8,12.8,2.8h76.1c5.8,0,10.1-0.9,12.8-2.8c2.7-1.8,4-4.6,4-8.3V70.9c0-3.7-1.3-6.5-4-8.3   c-2.7-1.8-7-2.8-12.8-2.8h-76.1c-5.8,0-10.1,0.9-12.8,2.8c-2.7,1.9-4,4.6-4,8.3V129.1z"/>
</g>
<g id="Ebene_1">
</g>
<g id="Ebene_3">
	<path class="st2" d="M641.3,165.6V60.1h-68.5V34.4h162.8v25.7h-68.5v105.5H641.3z"/>
	<path class="st2" d="M812.2,165.6V34.4h119.2c8,0,14.8,0.8,20.4,2.3c5.6,1.5,10.1,3.8,13.5,6.8c3.4,3,5.9,6.7,7.4,11.2   c1.5,4.4,2.3,9.6,2.3,15.4v17c0,5.8-0.8,10.9-2.3,15.4c-1.6,4.4-4,8.2-7.4,11.2c-3.4,3-7.9,5.3-13.5,6.8   c-5.6,1.5-12.4,2.3-20.4,2.3h-93.3v42.8H812.2z M838.1,98.8h93.5c5.8,0,10.1-0.9,12.8-2.8c2.7-1.8,4-4.6,4-8.3V71.1   c0-3.7-1.3-6.4-4-8.3c-2.7-1.8-6.9-2.8-12.8-2.8h-93.5V98.8z"/>
	<path class="st3" d="M30,165.6v-25.9h90.7c5.5,0,9.4-1.2,11.5-3.5c2.1-2.3,3.2-6.4,3.2-12.3V34.4h26.6V124c0,7.9-0.7,14.5-2,19.7   c-1.3,5.3-3.6,9.5-6.7,12.8c-3.2,3.2-7.4,5.6-12.7,7c-5.3,1.4-11.9,2.1-19.8,2.1H30z"/>
	<path class="st3" d="M383.6,165.6V34.4h122.6c7.1,0,13.1,0.5,18,1.6c4.9,1.1,8.9,2.9,11.9,5.4c3,2.5,5.2,6,6.5,10.3   c1.3,4.3,2,9.7,2,16.2v8.2c0,12.5-6,19.6-18,21.6c5.9,0.8,11,3.1,15.1,6.9c4.1,3.8,6.1,9.7,6.1,17.5v8.6c0,6.7-0.8,12.4-2.4,16.9   c-1.6,4.5-4.1,8.1-7.4,10.8c-3.4,2.7-7.7,4.5-13,5.6c-5.3,1.1-11.6,1.6-18.8,1.6H383.6z M518.1,71.6c0-4.2-0.9-7.1-2.7-8.8   c-1.8-1.6-4.9-2.5-9.2-2.5h-96v28.4h96.2c4.2,0,7.2-0.9,9-2.8c1.8-1.8,2.7-5,2.7-9.4V71.6z M521.3,122.8c0-4.8-1-8.2-2.9-10.1   c-1.9-2-5.7-2.9-11.2-2.9h-97v29.9h96c6,0,10-0.9,12-2.7c2.1-1.8,3.1-5,3.1-9.4V122.8z"/>
	<path class="st2" d="M760.6,165.6V34.4h26.6v131.2H760.6z"/>
	<g>
		<path class="st3" d="M219.6,155.6c-8-2.3-14.4-4.8-19.2-7.7c-4.8-2.9-8.3-6.4-10.6-10.6c-2.2-4.2-3.2-9.2-2.9-15    c0.3-5.8,1.6-12.7,3.8-20.6l13.1-45.9c2.3-8,4.8-14.5,7.6-19.6c2.8-5.1,6.3-8.8,10.4-11.2c4.1-2.4,9-3.5,14.6-3.5    c5.6,0.1,12.4,1.2,20.4,3.5L326,44.5c7.7,2.2,14.1,4.7,18.9,7.6c4.9,2.9,8.4,6.4,10.7,10.6c2.2,4.2,3.2,9.2,3,15    c-0.2,5.8-1.5,12.7-3.7,20.7l-13.1,45.9c-2.3,8-4.9,14.5-7.7,19.5c-2.9,5.1-6.4,8.8-10.5,11.2c-4.1,2.4-9,3.5-14.7,3.4    c-5.7-0.1-12.4-1.2-20.1-3.4L219.6,155.6z M329.3,91.3c1.8-6.4,1.9-11.1,0.3-14.1c-1.6-3-5.3-5.3-11-6.9l-69-19.5    c-5.7-1.6-10.1-1.6-13,0.1c-3,1.7-5.3,5.8-7.2,12.2l-13.1,45.8c-1.8,6.4-2,11.1-0.4,14c1.6,2.9,5.3,5.2,11.1,6.8l69,19.5    c5.8,1.7,10.2,1.7,13.1,0c2.9-1.6,5.2-5.7,7.1-12.1L329.3,91.3z"/>
		<path class="st3" d="M269.1,82.4c-1.7,6.1-8.1,9.7-14.3,7.9c-6.1-1.7-9.7-8.1-8-14.2c1.7-6.1,8.1-9.7,14.3-7.9    C267.3,69.9,270.8,76.3,269.1,82.4z"/>
		<path class="st3" d="M307.5,93.2c-1.7,6.1-8.1,9.7-14.3,7.9c-6.1-1.7-9.7-8.1-8-14.2c1.7-6.1,8.1-9.7,14.3-7.9    C305.7,80.7,309.3,87.1,307.5,93.2z"/>
	</g>
</g>
</svg>