<?xml version="1.0" encoding="utf-8"?>
<!-- Generator: Adobe Illustrator 26.3.1, SVG Export Plug-In . SVG Version: 6.00 Build 0)  -->
<svg version="1.1" id="Ebene_1" xmlns="http://www.w3.org/2000/svg" xmlns:xlink="http://www.w3.org/1999/xlink" x="0px" y="0px"
	 viewBox="0 0 983.4 542.8" style="enable-background:new 0 0 983.4 542.8;" xml:space="preserve">
<style type="text/css">
	.st0{opacity:0.2;fill:#0DB1CC;}
	.st1{fill:#442A6F;}
	.st2{clip-path:url(#XMLID_00000010283193246579646370000017726982291017739959_);fill:#442A6F;}
	.st3{clip-path:url(#XMLID_00000103976548765368338110000016688887068142814860_);fill:#CE671B;}
	.st4{fill:#6E45AE;}
	.st5{clip-path:url(#XMLID_00000043450994917612690840000016148897148329811342_);fill:#CE671B;}
	.st6{fill:#A060FF;}
	.st7{fill:#D8EFEA;}
	.st8{fill:#FFFFFF;}
	.st9{fill:#663FA5;}
	.st10{fill:#A3303F;}
	.st11{fill:#4F1721;}
	.st12{clip-path:url(#XMLID_00000088819191336323003660000014908057685658785938_);}
	.st13{clip-path:url(#SVGID_00000093888971182018814770000015638966885734744458_);}
	.st14{clip-path:url(#SVGID_00000168803120434719389500000007125485841773744289_);}
	.st15{clip-path:url(#SVGID_00000078027437486903008060000003787348494231432358_);}
	.st16{clip-path:url(#SVGID_00000080197563603919429140000010642247357608345787_);}
	.st17{clip-path:url(#SVGID_00000092427567878763582300000003046717934549746083_);fill:#D8EEEF;}
	.st18{clip-path:url(#SVGID_00000127039696391456108070000013335606557383481021_);}
	.st19{clip-path:url(#SVGID_00000108310788188931361020000004514591146764212917_);}
	.st20{clip-path:url(#SVGID_00000124121930408876597160000016317346423772416664_);}
	.st21{clip-path:url(#SVGID_00000003104063693305567610000013905294123961228956_);}
	.st22{clip-path:url(#SVGID_00000168826526492240460450000018078136687678653602_);}
	.st23{clip-path:url(#SVGID_00000077310593262143408970000003294676619107513007_);fill:#D8EEEF;}
	.st24{fill:#9B9B9B;}
</style>
<path class="st0" d="M983.4,517.9c0,13.7-220.1,24.9-491.7,24.9C220.1,542.8,0,531.7,0,517.9c0-13.7,220.1-24.9,491.7-24.9
	C763.3,493.1,983.4,504.2,983.4,517.9z"/>
<path class="st1" d="M267.2,511.1c21.5-1.2,46.4-1.2,67.6,2.2c3.4-16.3-51.8-14.4-60.9-9.1C272,471.5,259.2,511.6,267.2,511.1z"/>
<path class="st1" d="M210.7,490.2c-3,4.5-2.7,12.6-2.1,18.9c-26.7-4.2-51.8,8.9-77.3,8.9c-1.4-16.4,42.2-14.4,52.4-13.8
	c5.4,0.3,10.7,0.5,16,1.3c-0.8-4.1-1.5-8.2-1.9-12.3c2.9-0.4,6.4-1.1,9.4-0.6L210.7,490.2z"/>
<g>
	<defs>
		<path id="XMLID_51_" d="M200.5,33.7c7-5.3,15.5-7.6,23.2-9.6c-1.1,4,0.4,8.1-0.1,11.3c4.3-8,17-11.4,25.6-12.4
			c-2.2,3.4-1.9,5.2-3.5,8.9c0,0.7,0,0.7,0,0c9.1-14.4,34.6-24.5,49-20.1c-10.7-0.3-19.4,8.2-22.1,19.3c-0.4,0.4-0.4,0.3-0.1,0
			c11.2-8.3,39.7-20.6,47.9-3.7c-8.1-4.3-18.9-0.4-23.1,9.2c8.7-5.1,18.7-2.1,26.5,2.9c-7.8-0.1-7.1,1.3-12,6.1
			c6.2-0.5,12.7,0.3,18.5,2.2c0.7,0,0.7,0,0,0c-5.4,3.3-4.5,4.6-8,8.8c6.3-3.1,13.3-2.2,19.1,2.1c-2.9,1.1-5.4,3.9-7.8,5
			c-0.1,0,0.9,2,1.2,1.8c6.7-0.5,13,3.7,17.3,9.2c-2.7-0.5-6.2,0.1-7.9,0c7.4,3,15.9,8.9,16.8,18.8c-1.9-0.9-4.8-2.4-6.8-3.7
			c7,8.3,24.3,17,21,31.6c-1.4-0.6-3.5-1.9-5.2-2.4c8.4,11.7,25.5,36.9,20.3,51.3c-1.6-1.5-3.5-3.1-5.2-4.5
			c8,26.6,15.9,60.6,4.5,87.6c-0.8-1.7-2.6-4.3-3.4-6c5.2,17.6,13.4,53.6,8.7,71.4c0.3,0.3-4.5-0.6-4.3-0.8
			c-0.7-1.7-1.2-3.7-1.8-4.8c6.6,21.4,19.3,44.4,18.4,67.6c-7.7-2.1-13.5-8.6-22-7.6c7.4,13.1,3.9,31.4,1.5,45.6
			c-1.1-1.7-3-3.9-4.1-5.8c2.5,13,15.6,38.9,2.4,48.4c-1.1-8.4-3-8.3-9.6-10.4c5.9,13.8,11.8,26.5,1.8,40.7c-1-1.6-2.7-4-3.6-5.6
			c1.6,6,0.6,11.3,0.6,17.5c-11.9-10.7-32.9-16.3-47.9-10.8c3.6,1.1,5.4,4,8.9,6.7c-17.3-2.4-37.8-5.5-54.2-4.8
			c6.4-0.9,12.8,0.2,17.8,3.8c-24-0.3-48.3-14.6-71.9,1.8c1.9-2.7,3-7.5,5.3-10.4c-17.4-1.6-34.5,4.7-49.7,13.4
			c1.5-2.1,2.7-6,4.4-8.4c-4.6,0.9-9.1-0.1-13.8,1.9c0.3-0.8,1.9-3.2,2.3-3.9c-3.4,1.1-7.8,1.4-11.3,2.7c-3.8-1.6-8.4-1.9-14-0.9
			c0.4,0,0.8,0,1.2,0c-8,3.3-17.2,7.1-24.4,12.9c1.2-3.6,0.4-6.7,2.2-10.7c-6.2,0.5-12.6,2.7-18.2,5.7c-0.4-1.8-0.2-3.9-0.3-5.8
			c-1.3-0.6-2.9,3.3-4.2,2.6c-0.8-1.3-0.3-3.9-1.2-5.5c-3.7,4-4.1-0.4-6.3,6.7c-5.1-12-4.1-26-4.4-39.7c-7.7,5.6-6.5,17-6.3,26.8
			c-12.1-23.3-6.8-75.9,4.3-98.8c-6.4,2.9-10.6,8.9-13.9,15.7c-1.5-14.5-6.7-29.2-4.6-44.2c-1.7,5.2-4.1,10.1-5.2,15.8
			c0,0.7,0.1,0.7,0.1,0c-5.6-35.1,1.3-73.7,25.6-97.5c-5.9,4.4-11,9.4-16.6,13.5c-1.1-13.3,1.5-25,8.6-35.5
			c-3.9,5.4-8.2,10.8-13.1,15.3c4.5-30.3,11-57.1,27.5-81.5c-6.3-4.1-14.2-2.1-19.5,3.9c8.8-19.8,41.4-50.6-4.3-45.7
			c8.6-7.4,19.8-8.2,29.9-6.4c0.1-13.4,3.7-32.7,12.9-41.6c-0.2,3.8,0.9,5.6,1.3,8.7c2.2-11.4,6.6-21.9,14.9-29.5
			c-0.4,3.3,0.7,5.3,0.9,7.8c4-15.3,6-29,20.5-34.7c-1,3-0.3,6.4-0.7,9.4c5.3-8.9,19.3-23.8,8-33.4c7.6-0.9,14.7,3,18.7,10.5
			c3.5-4.4,7.4-6.5,13.1-8.9c0.3-0.4,0.3-0.4,0-0.1c-3.1,2.1-1.3,3.7-2.5,6.3L200.5,33.7z"/>
	</defs>
	<use xlink:href="#XMLID_51_"  style="overflow:visible;fill:#6E45AE;"/>
	<clipPath id="XMLID_00000067931235616329145320000017771765316520615864_">
		<use xlink:href="#XMLID_51_"  style="overflow:visible;"/>
	</clipPath>
	<path style="clip-path:url(#XMLID_00000067931235616329145320000017771765316520615864_);fill:#442A6F;" d="M140.3,94.7
		c-15.8,2.9-28.8,14.2-37.5,27.2c-2.8,4.1,3.4,8.7,6.1,4.6c7.6-11.3,23.2-20.2,35.2-27.7C148.2,96.2,145.1,93.8,140.3,94.7z"/>
	<path style="clip-path:url(#XMLID_00000067931235616329145320000017771765316520615864_);fill:#442A6F;" d="M386.7,136.9
		c-0.9-2.5-8-9.1-9.4-11.3c0.2-0.7,0.2-1.5-0.1-2.2c-5.1-13.1-18.3-23-31.5-27.1c-4.7-1.5-2.1,5.1,2.7,6.6c5.6,1.7,21,25.9,25.3,33
		C379.8,145.7,388.3,141.5,386.7,136.9z"/>
</g>
<g>
	<defs>
		<path id="XMLID_49_" d="M165.7,53.3c-30.5,2.6-51.1-35.5-54.9-53.3c-7.3,1.2-12.9,13.8-12.5,27c1.4,52.9,43.8,56.3,63.6,57.4
			c-3.5-8-0.4-22.7,6-28.3L165.7,53.3z"/>
	</defs>
	<use xlink:href="#XMLID_49_"  style="overflow:visible;fill:#ED7E24;"/>
	<clipPath id="XMLID_00000039118834965786069900000006993101824897448616_">
		<use xlink:href="#XMLID_49_"  style="overflow:visible;"/>
	</clipPath>
	<path style="clip-path:url(#XMLID_00000039118834965786069900000006993101824897448616_);fill:#CE671B;" d="M165,81.2
		c-0.7-1-1.3-2-2-3.1c-0.8-1.6-2.5-2.1-4.1-1.7c-1.1-2.9-4.6-3.6-6.6-1.3c-0.1-0.5-0.2-0.9-0.3-1.4c-0.3-2.5-3.2-4.5-5.4-3.7
		c-1-2.6-4.2-3.4-6.2-1.6c-0.6-3.9-4.9-4.6-6.9-1.8c0-0.2,0-0.4,0-0.6c-0.1-2.4-1.8-3.6-3.6-3.7c-0.1-0.6-0.2-1.2-0.3-1.8
		c-0.8-3.5-5.5-3.5-7-1c-0.5-1.1-0.9-2.3-1.3-3.5c-1-2.9-4.2-3.2-6.2-1.9c-0.7-1.6-1.3-3.3-2-5c0-0.2,0-0.3,0-0.5
		c0-0.4-0.2-0.7-0.5-0.8c-0.5-1.3-1-2.6-1.5-4c-0.4-1-1.1-1.7-1.8-2.2c-0.3-1-0.5-2.1-0.8-3.1c0-0.6-0.1-1.1-0.1-1.7
		c0-0.3-0.2-0.5-0.4-0.7c-0.3-1.5-0.6-3.1-0.8-4.6c-1.6-13.1-0.2-26.2,5.2-39.3c1.9-4.6-5.5-6.5-7.4-2c-4.7,11.3-6.5,22.8-6.1,34.2
		c-2.4,13.3-0.1,27.9,2.3,41.3c-9.1-23.1-8.1-49.8,1.4-72.6c0.5-1.1-1.4-1.6-1.8-0.5C90,18.3,90,48.8,102.7,73.8
		c0.5,1,1.9,0.3,1.8-0.7c-1.5-8.3-3.3-17.4-4.2-26.5c0.8,3.4,2,6.7,3.4,9.9c0.2,0.5,0.8,0.6,1.2,0.4c0.2,1.4,0.4,2.8,0.6,4.2
		c0.2,1.1,1.7,0.7,1.9-0.2c0.2,0.2,0.4,0.3,0.6,0.4c0.3,4.1,0.8,8.2,1.4,12.3c0.2,1,1.6,0.9,1.8,0c0.4-1.5,0.6-2.9,0.9-4.4
		c0.4,0.8,0.8,1.5,1.2,2.3c0.3,1.6,0.6,3.3,0.9,4.9c0.2,0.9,1.7,0.9,1.8,0c0-0.1,0-0.1,0-0.2c1.1,0.8,2.5,0.8,3.7,0.2
		c0,0,0.1,0,0.1,0c0.7,1.7,1.4,3.4,2.1,5c0.3,0.8,1.6,0.5,1.8-0.2c0.3-1.3,0.8-2.7,1.2-3.9c0.5,0.4,1,0.6,1.5,0.8
		c0.8,0.8,1.9,1.2,2.9,1.2c0.1,0.3,0.2,0.5,0.3,0.8c1.1,2.6,4.4,2.3,6.1,0.6c0.9,2.8,3.9,3.1,5.9,1.7c0.8,2,2.9,2.5,4.6,1.9
		c0.1,0.1,0.1,0.1,0.2,0.2c1.4,1.4,2,1.5,2.6,1c0.3,0.5,0.7,0.9,1.3,1.2c0.2,1.3,0.3,2.6,0.3,4c0,1.2,1.9,1.2,1.9,0
		c0-1.2-0.1-2.4-0.2-3.5c1.1,0,2.1-0.5,2.8-1.3c1.2,1.4,3.1,1.6,4.6,0.8c0,0,0,0,0,0C162.9,90.3,168.3,84.8,165,81.2z M122.5,78.2
		c-0.2-0.5-0.5-1.1-0.7-1.6c0.5-0.1,1-0.3,1.5-0.6C123,76.8,122.7,77.5,122.5,78.2z"/>
</g>
<path class="st4" d="M399.5,337.1c-0.4,12.6,13.7-0.2,18.5,0.1c0.5,6.5-12.6,21.3,0.7,17.6c0.4-1.5,1.2-3.8,1.4-5.2
	c-8.9,16,11.7,10.2,9.9-1.9c-0.1,3.8-1.2,5.6-1.8,9.3c6.6,0.2,8.6-3.8,9.5-9.2c0.8-4.8-1-13.3-4.7-16.7
	C423.1,321.9,399.9,325.5,399.5,337.1z"/>
<g>
	<defs>
		<path id="XMLID_47_" d="M313.3,58.4c41.7-0.6,65.3-44.7,69-56.9c12.3,18.8,17.4,46.8-13.1,70.4c-15.3,11.8-26.1,13.7-44.5,17.4
			C299.2,69.8,313.3,58.4,313.3,58.4z"/>
	</defs>
	<use xlink:href="#XMLID_47_"  style="overflow:visible;fill:#ED7E24;"/>
	<clipPath id="XMLID_00000013187404204188938080000006006688626054984326_">
		<use xlink:href="#XMLID_47_"  style="overflow:visible;"/>
	</clipPath>
	<path style="clip-path:url(#XMLID_00000013187404204188938080000006006688626054984326_);fill:#CE671B;" d="M394.7,32.6
		c-3.2,2.7,0.1-6.8-2.7-3.7c5.3-13-1.3-13.2-3.6-27.2c-0.8-4.9-8.2-2.8-7.4,2c1.3,8.1,2,15.8,0.8,23.4c-0.3,0.4-0.6,0.8-0.8,1.4
		c-1.7,4.7-3.5,9.5-5.4,14.1c-1,0.4-1.9,1.2-2.3,2.5c-0.4,1.6-1,3.1-1.7,4.5c-1.5-0.4-3.2,0-4.3,1.6c-0.3,0.4-0.6,0.8-0.8,1.1
		c-1.6-0.9-3.7-0.6-4.9,1.4c-0.6,1.1-1.3,2.2-1.9,3.3c-1,0.2-1.9,0.7-2.6,1.8c-1.2,2-2.5,3.8-4,5.5c-1.2-1.7-3.5-2.5-5.4-0.7
		c-0.4-0.2-0.9-0.3-1.4-0.3c-1.6-0.9-3.8-0.6-5.2,1.3c-0.5,0.7-1,1.4-1.4,2c-1.4,0-2.9,0.6-3.7,1.8c-0.6,1-1.3,1.9-2.1,2.7
		c-1.2-0.9-2.9-1-4.2-0.2c-3.2,1.9-4.7,4-6.5,7.1c-1.5,2.5,0.3,4.9,2.4,5.5c0.4,1.5,1.1,3,2,4.7c1.1,1.8,3.4,2.4,5.2,1.4
		c2.6-1.5,5.2-3,7.8-4.5c0.1,2.5,2.6,4.8,5.6,3.2c0.9-0.5,1.8-0.9,2.8-1.4c0.7,0.1,1.5-0.1,2.3-0.5c2.8-1.5,5.3-3.2,7.8-5
		c12.6-7.3,24.3-16,33.2-27.6c1.6-2.1,0.2-4.4-1.9-5.3c3.3-3.3,6.5-6.8,9.6-10.5C403.3,34.2,398.5,29.4,394.7,32.6z"/>
</g>
<path class="st4" d="M303.5,35.3c4.1,7.2,18.2,14.9,28,17.6c-8.5,2.9-17.7,3.8-26.3,1.4c10.1,3.8,22.2,7,31.5,10.1
	c-7.4,0.5-13.2,2.8-19.9,4.2c5.7-0.5,11.6,0.3,17.3,0.2c0.5,2.8-3.3,2.5-3.3,2.6c1.2,1.7,4.6,0.6,4.8,3.5c-0.5,0.7-0.5,4.2-0.5,3.8
	c-2.4,0.1-3.9,1-6.1,1.4c-0.9,0-0.9,0,0-0.1c0,0,5.3,0.2,5.2,0.3c-0.2,0.8-3.2,1.2-2.6,2.2c15.8,15.2-28.3,37-35.7,3.8
	c-5.3-23.8,8.1-29.5,12.9-48.4L303.5,35.3z"/>
<path class="st4" d="M176,36.6c-6.7,11-29.3,18.7-43,10.7c8.1,8,19.1,13.1,30.2,13.9c-5.1,0.9-9.5,3.4-16.1,3.5
	c4.9,1.8,8.5,4.1,13.6,5.5c-4.9,0.6-13.9,3-19,3.2c4.7,0.6,9.3,2.2,13.9,3.1c-3.5,1.3-10.5,7.3-14.1,8.8
	c34.6,15.8,34.1-21.2,33.4-46L176,36.6z"/>
<g>
	<path class="st4" d="M84.6,257.8c-22.9,4.3-33.6,37-31.6,57.6c0.6,6,1.2,5.3,2.7,11.2c1-0.7,6.4-2,7.2-3
		c-15-24.3,4.7-36.2,19.7-51.7c5.9-6.1,7.4-8.3,4.6-18.1L84.6,257.8z"/>
	<path class="st4" d="M75.9,335.5c-4.7,2-5.8-7.7-10.5-8.1c-6.2-0.5-8.8,7.9-9.3,12.8c-0.3,2.9,1.8,17.5-5.4,7.5
		c1.6,8.3-7,10.1-8.7,1.8c-0.5,12.3-7.7-6.1-5.9-13.2c2.6-10,13-18.4,23.3-18.2C64.3,318.1,86.7,330.7,75.9,335.5z"/>
</g>
<g>
	<path class="st4" d="M106.5,92.6c-11.9-2.8-27.7-9.2-37,2.5c-8.4,10.6-2,24.9,10.2,28.3c12.1,3.4,22.4-4.4,31.7-10.7
		c11.1-7.6,23.9-10.5,35.2-16.3C136.7,88.6,118.6,95.5,106.5,92.6z"/>
	<path class="st6" d="M98.4,102.4c-4.2-1.6-23.9-8.6-21.7,3c2,10.5,18.2-1.3,23-2.9L98.4,102.4z"/>
</g>
<g>
	<path class="st4" d="M342.4,88.9c15.2,11.8,48.6,4.8,59.8,17.3c9.2,10.3,1,20.7-10.5,16.8c-8.3-2.8-16.5-12.4-26.9-15.9
		c-11-3.7-24-1.3-24.4-18.5L342.4,88.9z"/>
	<path class="st6" d="M396.4,114.9c-6.1,4.2-13.8-9.1-16.6-12.1C379.8,102.9,406.9,107.7,396.4,114.9z"/>
</g>
<g>
	<path class="st1" d="M293.3,107c-32.2,8.4-16.4,58.5,18.3,37.2c9.1-5.6,10.5-12.6,7.2-22.7C318.7,121.5,313.8,101.7,293.3,107z"/>
	<path class="st7" d="M293.3,111.5c-32.2,8.4-16.4,58.5,18.3,37.2c9.1-5.6,10.5-12.6,7.2-22.7C318.7,126,313.8,106.2,293.3,111.5z"
		/>
	<path class="st8" d="M292.4,114.2c-24.9,6.5-12.7,45.3,14.1,28.8c7-4.3,8.2-9.7,5.5-17.6C312,125.4,308.3,110.1,292.4,114.2z"/>
	<path class="st1" d="M301.7,151.3c7.6-9.1,24-16.1,31.5-11.1c9.1,6.1,9.4,20-8.9,23.9C306,168.1,292.1,162.6,301.7,151.3z"/>
	<path class="st9" d="M303.5,153.4c7.6-5.4,24.3-17.2,31.8-12.2c9.1,6.1,11.1,23.4-7.2,27.4C309.8,172.5,291.5,162,303.5,153.4z"/>
	<path id="XMLID_45_" class="st10" d="M300.6,137.2c2.9-2.5,3.2-7.9,1.2-11.7c-4.2-8.1-18.7-7.7-20.5,2c-0.6,3.2,0.5,7.4,2.7,9.8
		c2.1,2.3,5.9,3.5,8.9,3.4C294.8,140.7,297.5,139.9,300.6,137.2z"/>
	<path id="XMLID_43_" class="st11" d="M296.5,133.9c1.5-1.3,1.6-4.1,0.6-6c-2.2-4.2-9.6-4-10.6,1c-0.3,1.6,0.3,3.8,1.4,5
		c1.1,1.2,3,1.8,4.6,1.7C293.5,135.7,294.9,135.2,296.5,133.9z"/>
	<path id="XMLID_42_" class="st8" d="M302.4,128.5c1.5-1.3,1.6-4.1,0.6-6c-2.2-4.2-9.6-4-10.6,1c-0.3,1.6,0.3,3.8,1.4,5
		c1.1,1.2,3,1.8,4.6,1.7C299.4,130.3,300.8,129.9,302.4,128.5z"/>
</g>
<g>
	<path id="XMLID_39_" class="st1" d="M167.9,78.8c-13.6,13.5-12.9,40.3-1.9,58.1c23.7,38.5,95.3,31.5,100.9-17.4
		c1.8-15.9-5.3-36.5-16.9-47.6c-11.2-10.8-30.3-15-45.4-13.5C195.6,59.4,182.3,64.5,167.9,78.8z"/>
	<path id="XMLID_36_" class="st7" d="M167.4,86.3c-13.6,13.5-12.9,40.3-1.9,58.2c23.7,38.5,95.3,31.5,100.9-17.4
		c1.8-15.9-5.3-36.5-16.9-47.6c-11.2-10.8-30.3-15-45.4-13.5C195.1,66.9,181.8,72.1,167.4,86.3z"/>
	<path id="XMLID_35_" class="st8" d="M251.5,142.7c12.3-10.6,13.4-33.3,5.2-49.1c-17.6-34.1-78.8-32.6-86.5,8.5
		c-2.5,13.4,2.3,31.3,11.3,41.4c8.8,9.8,24.7,14.6,37.6,14.2C226.8,157.4,238.4,153.9,251.5,142.7z"/>
	<path id="XMLID_33_" class="st10" d="M241.5,133.1c4.8-4.1,5.2-12.8,2-18.9c-6.8-13.1-30.3-12.6-33.3,3.3c-1,5.1,0.9,12,4.4,15.9
		c3.4,3.8,9.5,5.6,14.5,5.5C232,138.7,236.5,137.4,241.5,133.1z"/>
	<path id="XMLID_31_" class="st11" d="M234.7,127.6c2.4-2.1,2.6-6.5,1-9.6c-3.5-6.7-15.4-6.4-17,1.7c-0.5,2.6,0.4,6.1,2.2,8.1
		c1.7,1.9,4.8,2.9,7.4,2.8C229.9,130.4,232.2,129.8,234.7,127.6z"/>
	<path id="XMLID_30_" class="st8" d="M222.3,119c2.3-2,2.5-6.2,1-9.1c-3.3-6.3-14.7-6.1-16.1,1.6c-0.5,2.5,0.4,5.8,2.1,7.7
		c1.6,1.8,4.6,2.7,7,2.6C217.8,121.7,219.9,121.1,222.3,119z"/>
</g>
<path class="st1" d="M185.4,268.1c-12.7-2.8-22.5-18.4-37.1-16.3c1.7,29,45.4,40.2,67.7,40.8c41.9,1.1,83.6-16.6,111.2-47.4
	c7.7-8.6,11.4-17.9,15.1-28.7C342.5,216.5,283.4,289.9,185.4,268.1z"/>
<g>
	<path class="st1" d="M284,184.8c15.4-9.5,26.8-21,40.5-25.9c13.4-4.8,20.4-0.4,22.5,10.4c1.6,8.1-0.6,19.2-4,29.7
		c-6.4,19.7-19,35.3-35.8,46.8c-43.3,29.7-102.4,39.9-149.9,10.3c-18.5-11.6-30.5-31.7-31.9-56c-1.6-29.1,19.4-24.1,42.4-12.2
		C216.6,213,265.9,195.9,284,184.8z"/>
	<g>
		<defs>
			<path id="XMLID_38_" d="M284.2,188.1c15.4-9.5,26.7-23,40.3-27.8c13.4-4.8,20.4-0.4,22.5,10.4c1.6,8.1-0.6,19.2-4,29.7
				c-6.4,19.7-19,35.3-35.8,46.8c-43.3,29.7-102.4,39.9-149.9,10.3c-18.5-11.6-30.5-31.7-31.9-56c-1.6-29.1,19.5-22.2,42.5-10.3
				C216.8,216.4,266.1,199.3,284.2,188.1z"/>
		</defs>
		<use xlink:href="#XMLID_38_"  style="overflow:visible;"/>
		<clipPath id="XMLID_00000036951504162326923660000003954572177641473723_">
			<use xlink:href="#XMLID_38_"  style="overflow:visible;"/>
		</clipPath>
		<g style="clip-path:url(#XMLID_00000036951504162326923660000003954572177641473723_);">
			<defs>
				<path id="SVGID_1_" d="M155.7,179.1c7.9,0.8,17.3,3.5,25.8,4.3c-0.9,5.9-1.6,12.9-4.1,18.4c-5.1,11.1-17.6,17.6-28.1,7.7
					c-8.3-7.9-5.9-22-3.3-31.8L155.7,179.1z"/>
			</defs>
			<defs>
				<path id="SVGID_00000085228179865087055220000007462803846574214822_" d="M184.2,187.4c-0.7,11.1-3.6,26.6,7.8,33.2
					c11.9,6.9,23-0.2,25.2-11.8c1.3-6.8-0.7-15.2-1.8-21.9c-6.3,0.2-12.7,0.6-19,1L184.2,187.4z"/>
			</defs>
			<defs>
				<path id="SVGID_00000170994693715125108130000007797502283054358197_" d="M223.6,190.7c0.3,15.2,0.4,33.4,18.9,33.5
					c17.9,0.1,27.6-19.9,16.6-34.9c-6.4-8.8-12.7-2.5-22.2-1.3L223.6,190.7z"/>
			</defs>
			<defs>
				<path id="SVGID_00000173147693964047385890000001375512642764091807_" d="M280.6,215.4c15.2,2.5,22.1-14.3,18.9-26.1
					c-1.8-6.8-6.1-13.1-9-19.4c-9.2,1.8-21.9,7.6-24.8,17.3C262.7,196.8,270.1,213.6,280.6,215.4z"/>
			</defs>
			<defs>
				<path id="SVGID_00000088833057003305784590000016727385420233564087_" d="M316.1,197.6c15.2,2.5,22.1-14.3,18.9-26.1
					c-1.8-6.8-6.1-13.1-9-19.4c-9.2,1.8-21.9,7.6-24.8,17.3C298.2,179.1,305.6,195.9,316.1,197.6z"/>
			</defs>
			<use xlink:href="#SVGID_1_"  style="overflow:visible;fill:#FFFFFF;"/>
			<use xlink:href="#SVGID_00000085228179865087055220000007462803846574214822_"  style="overflow:visible;fill:#FFFFFF;"/>
			<use xlink:href="#SVGID_00000170994693715125108130000007797502283054358197_"  style="overflow:visible;fill:#FFFFFF;"/>
			<use xlink:href="#SVGID_00000173147693964047385890000001375512642764091807_"  style="overflow:visible;fill:#FFFFFF;"/>
			<use xlink:href="#SVGID_00000088833057003305784590000016727385420233564087_"  style="overflow:visible;fill:#FFFFFF;"/>
			<clipPath id="SVGID_00000096756703745419473190000003773451374643028904_">
				<use xlink:href="#SVGID_1_"  style="overflow:visible;"/>
			</clipPath>
			
				<clipPath id="SVGID_00000059276908061732028470000014298549645116285357_" style="clip-path:url(#SVGID_00000096756703745419473190000003773451374643028904_);">
				<use xlink:href="#SVGID_00000085228179865087055220000007462803846574214822_"  style="overflow:visible;"/>
			</clipPath>
			
				<clipPath id="SVGID_00000016797407477004981190000006574895323535893948_" style="clip-path:url(#SVGID_00000059276908061732028470000014298549645116285357_);">
				<use xlink:href="#SVGID_00000170994693715125108130000007797502283054358197_"  style="overflow:visible;"/>
			</clipPath>
			
				<clipPath id="SVGID_00000158008428686314593850000004204906104160715956_" style="clip-path:url(#SVGID_00000016797407477004981190000006574895323535893948_);">
				<use xlink:href="#SVGID_00000173147693964047385890000001375512642764091807_"  style="overflow:visible;"/>
			</clipPath>
			
				<clipPath id="SVGID_00000065788566550194057320000012154949959695379341_" style="clip-path:url(#SVGID_00000158008428686314593850000004204906104160715956_);">
				<use xlink:href="#SVGID_00000088833057003305784590000016727385420233564087_"  style="overflow:visible;"/>
			</clipPath>
			<path style="clip-path:url(#SVGID_00000065788566550194057320000012154949959695379341_);fill:#D8EEEF;" d="M136.6,191
				c17.3-6,32.5,1.6,40.7,17.1c10.9-8.5,36.8-8,42.7,6.3c5.1-8.4,38-17.3,44.5-7.7c7.4-10.9,24.3-22,37.8-19.1
				c1.4-11.9,17.1-15.8,26.5-17.6c25.9-4.9-0.3-20.3-15.7-20.5c-34-0.5-54.5,25.9-85.2,33.3c-27.4,6.6-46.7-9.5-72.2-13.5
				c-11.7-1.8-27.5,5-22.1,19.3L136.6,191z"/>
		</g>
		<g style="clip-path:url(#XMLID_00000036951504162326923660000003954572177641473723_);">
			<defs>
				<path id="SVGID_00000057114516243526379750000001213186694906190212_" d="M139.1,250.6c0.8-10.8,1.4-26.7,17.1-24.9
					c12.7,1.5,10.9,26.9,6.2,35.1c-4.5,8-17.2-1-23.3-4.5V250.6z"/>
			</defs>
			<defs>
				<path id="SVGID_00000159430828312792922140000010441185226945250750_" d="M167.8,265.5c0.5,10.2,23.7,28.6,31.5,20.9
					c4.3-4.2,4.5-30.8,3.5-36.2c-1.5-8-6.9-11-14.7-11.5C173.5,237.7,167.2,252.7,167.8,265.5z"/>
			</defs>
			<defs>
				<path id="SVGID_00000078733226234206610050000013836976190261146255_" d="M212.6,286.8c7.5,0.5,23,3.5,26.2-5.6
					c2.3-6.5,2.3-20.4,0.9-27.1c-2.1-9.9-9.5-12.9-17.6-11.2c-17.4,3.6-13.9,25.7-14.4,39.7L212.6,286.8z"/>
			</defs>
			<defs>
				<path id="SVGID_00000036244895115513124820000008753358327689631907_" d="M260.1,283.1c8.4-1.5,19.3-3.9,18.6-13.8
					c-0.8-12.4-4.8-39.7-22.9-30.6c-13.5,6.7-10.2,32.4-8.1,44.4H260.1z"/>
			</defs>
			<defs>
				<path id="SVGID_00000028305170403244100200000009177336886552888481_" d="M294.2,271.2c6.5-4.3,15.7-7.1,16.8-15.9
					c1.1-9.4-7-33.9-20.1-28.7c-16.3,6.4-8.8,33-2.7,43.7L294.2,271.2z"/>
			</defs>
			<defs>
				<path id="SVGID_00000038374992787290021100000017601389723273738922_" d="M323.8,250.9c7-4.6,14.5-9.5,15-18.5
					c0.6-11.2-5.2-28.5-19.1-20.9c-13,7.1-7.4,26.4-2.1,36.7L323.8,250.9z"/>
			</defs>
			<use xlink:href="#SVGID_00000057114516243526379750000001213186694906190212_"  style="overflow:visible;fill:#FFFFFF;"/>
			<use xlink:href="#SVGID_00000159430828312792922140000010441185226945250750_"  style="overflow:visible;fill:#FFFFFF;"/>
			<use xlink:href="#SVGID_00000078733226234206610050000013836976190261146255_"  style="overflow:visible;fill:#FFFFFF;"/>
			<use xlink:href="#SVGID_00000036244895115513124820000008753358327689631907_"  style="overflow:visible;fill:#FFFFFF;"/>
			<use xlink:href="#SVGID_00000028305170403244100200000009177336886552888481_"  style="overflow:visible;fill:#FFFFFF;"/>
			<use xlink:href="#SVGID_00000038374992787290021100000017601389723273738922_"  style="overflow:visible;fill:#FFFFFF;"/>
			<clipPath id="SVGID_00000158022455317841686150000001245705482871524521_">
				<use xlink:href="#SVGID_00000057114516243526379750000001213186694906190212_"  style="overflow:visible;"/>
			</clipPath>
			
				<clipPath id="SVGID_00000100363585565266242960000001194380496680710543_" style="clip-path:url(#SVGID_00000158022455317841686150000001245705482871524521_);">
				<use xlink:href="#SVGID_00000159430828312792922140000010441185226945250750_"  style="overflow:visible;"/>
			</clipPath>
			
				<clipPath id="SVGID_00000018936639869555138770000006401671530018864031_" style="clip-path:url(#SVGID_00000100363585565266242960000001194380496680710543_);">
				<use xlink:href="#SVGID_00000078733226234206610050000013836976190261146255_"  style="overflow:visible;"/>
			</clipPath>
			
				<clipPath id="SVGID_00000001653863923008474310000009884830432541427072_" style="clip-path:url(#SVGID_00000018936639869555138770000006401671530018864031_);">
				<use xlink:href="#SVGID_00000036244895115513124820000008753358327689631907_"  style="overflow:visible;"/>
			</clipPath>
			
				<clipPath id="SVGID_00000161617329523110626150000015008535964106801556_" style="clip-path:url(#SVGID_00000001653863923008474310000009884830432541427072_);">
				<use xlink:href="#SVGID_00000028305170403244100200000009177336886552888481_"  style="overflow:visible;"/>
			</clipPath>
			
				<clipPath id="SVGID_00000161613669823431157880000007420800803436768691_" style="clip-path:url(#SVGID_00000161617329523110626150000015008535964106801556_);">
				<use xlink:href="#SVGID_00000038374992787290021100000017601389723273738922_"  style="overflow:visible;"/>
			</clipPath>
			<path style="clip-path:url(#SVGID_00000161613669823431157880000007420800803436768691_);fill:#D8EEEF;" d="M310.1,232.3
				c-3.7,9.5-20.3,21.4-30.6,17.7c-2.9,8.6-20.3,13.2-28.2,14.9c-10.2,2.2-20.4,7.9-31.9,6.2c-6.3-0.9-10.4-4-15.2-7.8
				c-8.4,4.3-35.1-1.9-35.6-12.8c-13.4-0.3-25.6-10.3-31.2-21.9c-19.8,25.4,42.6,47.2,59.1,51.6c44.5,11.7,101.3-1,135-33.5
				c5.7-5.5,23.7-27.2,7.7-32.2c-6.8-2.1-8.4,3.6-12.4,7.8C324.8,224.3,310.2,232.1,310.1,232.3z"/>
		</g>
	</g>
</g>
<g>
	<path class="st24" d="M673.3,359l-0.8-5.3c-6.1-42.8-57.1-61.9-89.8-33.7L464.6,421.8c-13.4,11.5-19.3,26.7-19.1,41.6
		C501.9,443.3,606,403.4,673.3,359z"/>
	<path class="st24" d="M674.6,368.1c-41.5,35.1-114.2,80.5-228.5,102.3c3.5,25.1,24,47.5,54.2,47.5h132.6
		c33.3,0,58.8-29.5,54.1-62.4L674.6,368.1z"/>
</g>
<g>
	<path class="st24" d="M706.7,412.1l-5.7,40.4c-4.7,32.9,20.9,62.3,54.1,62.3H820c21,0,37.3-10.8,46.5-25.8
		C824.3,478.4,768.4,456.5,706.7,412.1z"/>
	<path class="st24" d="M870.9,480c7.8-20,4.2-44.4-15.1-61.1L798,368.7c-31.4-27.2-79.7-10.8-89,28.5
		C756.2,425.7,817,459.5,870.9,480z"/>
</g>
</svg>
